<?xml version="1.0" encoding="UTF-8" standalone="no"?>
<!-- Generator: Adobe Illustrator 23.1.1, SVG Export Plug-In . SVG Version: 6.00 Build 0)  -->

<svg
   xmlns:dc="http://purl.org/dc/elements/1.1/"
   xmlns:cc="http://creativecommons.org/ns#"
   xmlns:rdf="http://www.w3.org/1999/02/22-rdf-syntax-ns#"
   xmlns:svg="http://www.w3.org/2000/svg"
   xmlns="http://www.w3.org/2000/svg"
   xmlns:sodipodi="http://sodipodi.sourceforge.net/DTD/sodipodi-0.dtd"
   xmlns:inkscape="http://www.inkscape.org/namespaces/inkscape"
   version="1.1"
   id="Layer_1"
   x="0px"
   y="0px"
   viewBox="0 0 1000 1000"
   style="enable-background:new 0 0 1000 1000;"
   xml:space="preserve"
   sodipodi:docname="robot.svg"
   inkscape:version="0.92.5 (2060ec1f9f, 2020-04-08)"><metadata
   id="metadata788"><rdf:RDF><cc:Work
       rdf:about=""><dc:format>image/svg+xml</dc:format><dc:type
         rdf:resource="http://purl.org/dc/dcmitype/StillImage" /></cc:Work></rdf:RDF></metadata><defs
   id="defs786" /><sodipodi:namedview
   pagecolor="#ffffff"
   bordercolor="#666666"
   borderopacity="1"
   objecttolerance="10"
   gridtolerance="10"
   guidetolerance="10"
   inkscape:pageopacity="0"
   inkscape:pageshadow="2"
   inkscape:window-width="2552"
   inkscape:window-height="1395"
   id="namedview784"
   showgrid="false"
   inkscape:zoom="0.472"
   inkscape:cx="670.35656"
   inkscape:cy="274.57199"
   inkscape:window-x="4"
   inkscape:window-y="4"
   inkscape:window-maximized="0"
   inkscape:current-layer="Layer_1" />
<style
   type="text/css"
   id="style548">
	.st0{fill:#FE3E4B;}
	.st1{fill:#EEF2F4;}
	.st2{opacity:0.17;fill:#FC8B3F;}
	.st3{opacity:0.17;fill:#FF9F2C;}
	.st4{fill:#430B48;}
	.st5{fill:#E0E0E0;}
	.st6{fill:#CFC3D8;}
	.st7{fill:none;stroke:#430B48;stroke-width:8;stroke-linecap:round;stroke-linejoin:round;stroke-miterlimit:10;}
	.st8{fill:#BFB0CC;}
	.st9{fill:#4B1151;}
	.st10{fill:none;stroke:#430B48;stroke-width:6;stroke-linecap:round;stroke-linejoin:round;stroke-miterlimit:10;}
	.st11{fill:#FFFFFF;}
	.st12{fill:#E6EEF1;}
	.st13{fill:#FEA74A;}
	.st14{fill:#BBC6CC;}
	.st15{fill:#CFC3D8;stroke:#CFC3D8;stroke-width:8;stroke-linecap:round;stroke-linejoin:round;stroke-miterlimit:10;}
	.st16{fill:#23B5E2;}
	.st17{fill:none;stroke:#BBC6CC;stroke-width:8;stroke-linecap:round;stroke-linejoin:round;stroke-miterlimit:10;}
	.st18{fill:url(#XMLID_198_);}
	.st19{fill:none;stroke:#3A3A3A;stroke-width:4;stroke-linecap:round;stroke-linejoin:round;stroke-miterlimit:10;}
	.st20{opacity:0.3;fill:#FFFFFF;}
	.st21{fill:none;stroke:#430B48;stroke-width:4;stroke-linecap:round;stroke-linejoin:round;stroke-miterlimit:10;}
	.st22{fill:#FE4B49;}
	.st23{fill:#FE5944;}
	.st24{fill:url(#XMLID_202_);}
</style>


<circle
   id="XMLID_1_"
   class="st2"
   cx="507.8"
   cy="503.8"
   r="383"
   style="fill:#80ff80" />
<circle
   id="XMLID_3_"
   class="st3"
   cx="500"
   cy="500"
   r="235.6"
   style="fill:#00aa00" />
<g
   id="g766">
	<ellipse
   id="XMLID_22_"
   class="st4"
   cx="504.2"
   cy="776.8"
   rx="92.5"
   ry="17.2" />
	<path
   id="XMLID_104_"
   class="st5"
   d="M475.2,660.3c-23.5,0-42.5,17.4-42.5,39v1.4c0,42.1,31.3,76.1,69.9,76.1   c38.6,0,69.9-34.1,69.9-76.1v-1.4c0-21.5-19-39-42.5-39H475.2z" />
	<ellipse
   id="XMLID_24_"
   class="st6"
   cx="502.7"
   cy="674"
   rx="49.3"
   ry="13.7" />
	<ellipse
   id="XMLID_10_"
   class="st4"
   cx="502.7"
   cy="672.7"
   rx="36.8"
   ry="10.2" />
	<path
   id="XMLID_188_"
   class="st6"
   d="M502.7,744.7c-34.9,0-63.8-16.8-69.1-53.2c-0.6,2.5-0.9,5.1-0.9,7.8v1.4   c0,42.1,31.3,76.1,69.9,76.1c38.6,0,69.9-34.1,69.9-76.1v-1.4c0-2.7-0.3-5.3-0.9-7.8C566.5,727.9,537.6,744.7,502.7,744.7z" />
	<path
   id="XMLID_184_"
   class="st7"
   d="M475.2,660.3c-23.5,0-42.5,17.4-42.5,39v1.4c0,42.1,31.3,76.1,69.9,76.1   c38.6,0,69.9-34.1,69.9-76.1v-1.4c0-21.5-19-39-42.5-39H475.2z" />
	<line
   id="XMLID_17_"
   class="st7"
   x1="612.5"
   y1="285.1"
   x2="648.5"
   y2="285.1" />
	<circle
   id="XMLID_53_"
   class="st8"
   cx="664.5"
   cy="285.1"
   r="16" />
	<circle
   id="XMLID_16_"
   class="st7"
   cx="664.5"
   cy="285.1"
   r="16" />
	<g
   id="XMLID_42_">
		<path
   id="XMLID_50_"
   class="st9"
   d="M626,522.5c-0.9-7.5-0.6-15,0.8-22.4c0.9-3.8,5-6.8,8.6-6.6l0,0c3.7,0.1,7.5,3.3,8.2,7.2    c0.9,7.5,0.6,15-0.8,22.4c-0.9,3.8-5,6.8-8.6,6.6l0,0C630.5,529.6,626.6,526.4,626,522.5z" />
		<g
   id="XMLID_101_">
			<path
   id="XMLID_49_"
   class="st4"
   d="M647.3,522.1c-2.5-6.9-4.1-14.2-4.3-21.6c-0.1-3.8,3.2-7.6,6.8-8.3l0,0     c3.6-0.7,8,1.5,9.4,5.1c2.7,6.9,4.1,14.2,4.3,21.6c0.1,3.8-3.2,7.6-6.8,8.3l0,0C653.2,527.9,648.8,525.7,647.3,522.1z" />
			<path
   id="XMLID_48_"
   class="st9"
   d="M667.6,517c-4-6-7.2-12.6-9.1-19.6c-1-3.6,1.3-8,4.5-9.4l0,0c3.4-1.5,8-0.5,10.1,2.6     c4.1,5.9,7.2,12.6,9.1,19.6c1,3.6-1.3,8-4.5,9.4l0,0C674.5,521.1,669.8,520,667.6,517z" />
			<path
   id="XMLID_47_"
   class="st9"
   d="M685.8,507.5c-5.2-4.8-9.7-10.4-13.1-16.6c-1.8-3.3-0.5-7.9,2.2-10l0,0     c3-2.3,7.5-2.2,10.3,0.2c5.3,4.7,9.7,10.4,13.1,16.6c1.8,3.3,0.5,7.9-2.2,10l0,0C693.3,509.9,688.6,509.9,685.8,507.5z" />
			<path
   id="XMLID_46_"
   class="st9"
   d="M701.3,494.3c-6-3.4-11.6-7.7-16.2-12.9c-2.4-2.7-2.3-7.4-0.2-10l0,0     c2.4-2.9,6.6-3.8,9.8-2.1c6.1,3.3,11.6,7.7,16.2,12.9c2.4,2.7,2.3,7.4,0.2,10l0,0C709,494.9,704.5,496,701.3,494.3z" />
			<path
   id="XMLID_45_"
   class="st9"
   d="M713.5,477.9c-6.5-1.9-12.8-4.7-18.4-8.6c-2.9-2-3.9-6.5-2.5-9.5l0,0     c1.7-3.4,5.4-5.2,8.9-4.2c6.6,1.8,12.8,4.7,18.4,8.6c2.9,2,3.9,6.5,2.5,9.5l0,0C721,476.7,716.9,478.8,713.5,477.9z" />
			<path
   id="XMLID_44_"
   class="st9"
   d="M721.7,458.9c-6.7-0.3-13.3-1.4-19.5-3.8c-3.2-1.2-5.2-5.3-4.6-8.5l0,0     c0.9-3.8,4-6.2,7.4-6.1c6.7,0.1,13.3,1.4,19.5,3.8c3.2,1.2,5.2,5.3,4.6,8.5l0,0C728.6,455.9,725.2,458.9,721.7,458.9z" />
			<path
   id="XMLID_43_"
   class="st9"
   d="M724.5,439.3c-6.5,0.4-13-0.2-19.3-1.8c-3.3-1-5.6-4.6-5.3-7.8l0,0c0.5-3.9,3.3-6.3,6.7-6.7     c6.5-0.4,13,0.2,19.3,1.8c3.3,1,5.6,4.6,5.3,7.8l0,0C730.9,435.8,727.9,439,724.5,439.3z" />
		</g>
	</g>
	<g
   id="XMLID_97_">
		<path
   id="XMLID_68_"
   class="st10"
   d="M626,522.5c-0.9-7.5-0.6-15,0.8-22.4c0.9-3.8,5-6.8,8.6-6.6l0,0c3.7,0.1,7.5,3.3,8.2,7.2    c0.9,7.5,0.6,15-0.8,22.4c-0.9,3.8-5,6.8-8.6,6.6l0,0C630.5,529.6,626.6,526.4,626,522.5z" />
		<path
   id="XMLID_66_"
   class="st10"
   d="M647.3,522.1c-2.5-6.9-4.1-14.2-4.3-21.6c-0.1-3.8,3.2-7.6,6.8-8.3l0,0    c3.6-0.7,8,1.5,9.4,5.1c2.7,6.9,4.1,14.2,4.3,21.6c0.1,3.8-3.2,7.6-6.8,8.3l0,0C653.2,527.9,648.8,525.7,647.3,522.1z" />
		<path
   id="XMLID_65_"
   class="st10"
   d="M667.6,517c-4-6-7.2-12.6-9.1-19.6c-1-3.6,1.3-8,4.5-9.4l0,0c3.4-1.5,8-0.5,10.1,2.6    c4.1,5.9,7.2,12.6,9.1,19.6c1,3.6-1.3,8-4.5,9.4l0,0C674.5,521.1,669.8,520,667.6,517z" />
		<path
   id="XMLID_64_"
   class="st10"
   d="M685.8,507.5c-5.2-4.8-9.7-10.4-13.1-16.6c-1.8-3.3-0.5-7.9,2.2-10l0,0    c3-2.3,7.5-2.2,10.3,0.2c5.3,4.7,9.7,10.4,13.1,16.6c1.8,3.3,0.5,7.9-2.2,10l0,0C693.3,509.9,688.6,509.9,685.8,507.5z" />
		<path
   id="XMLID_63_"
   class="st10"
   d="M701.3,494.3c-6-3.4-11.6-7.7-16.2-12.9c-2.4-2.7-2.3-7.4-0.2-10l0,0    c2.4-2.9,6.6-3.8,9.8-2.1c6.1,3.3,11.6,7.7,16.2,12.9c2.4,2.7,2.3,7.4,0.2,10l0,0C709,494.9,704.5,496,701.3,494.3z" />
		<path
   id="XMLID_62_"
   class="st10"
   d="M713.5,477.9c-6.5-1.9-12.8-4.7-18.4-8.6c-2.9-2-3.9-6.5-2.5-9.5l0,0    c1.7-3.4,5.4-5.2,8.9-4.2c6.6,1.8,12.8,4.7,18.4,8.6c2.9,2,3.9,6.5,2.5,9.5l0,0C721,476.7,716.9,478.8,713.5,477.9z" />
		<path
   id="XMLID_61_"
   class="st10"
   d="M721.7,458.9c-6.7-0.3-13.3-1.4-19.5-3.8c-3.2-1.2-5.2-5.3-4.6-8.5l0,0    c0.9-3.8,4-6.2,7.4-6.1c6.7,0.1,13.3,1.4,19.5,3.8c3.2,1.2,5.2,5.3,4.6,8.5l0,0C728.6,455.9,725.2,458.9,721.7,458.9z" />
		<path
   id="XMLID_60_"
   class="st10"
   d="M724.5,439.3c-6.5,0.4-13-0.2-19.3-1.8c-3.3-1-5.6-4.6-5.3-7.8l0,0c0.5-3.9,3.3-6.3,6.7-6.7    c6.5-0.4,13,0.2,19.3,1.8c3.3,1,5.6,4.6,5.3,7.8l0,0C730.9,435.8,727.9,439,724.5,439.3z" />
	</g>
	<path
   id="XMLID_57_"
   class="st6"
   d="M726.8,371.7v19.5c0,5.3-4.3,9.6-9.6,9.6c-5.3,0-9.6-4.3-9.6-9.6v-12.8h-19.3v16.4   c0,16,12.9,28.9,28.9,28.9h0c16,0,28.9-12.9,28.9-28.9v-23.1H726.8z" />
	<path
   id="XMLID_187_"
   class="st8"
   d="M711.4,398.9c-2.3-1.8-3.8-4.5-3.8-7.6V383c0-0.8-0.1-1.7-0.1-2.5c0-0.7,0-1.3,0-2h-19.2v16.4   c0,16,12.9,28.9,28.9,28.9h0c5.2,0,10.1-1.4,14.3-3.8C722.7,415.7,715.5,408.2,711.4,398.9z" />
	<path
   id="XMLID_59_"
   class="st7"
   d="M726.8,371.7v19.5c0,5.3-4.3,9.6-9.6,9.6c-5.3,0-9.6-4.3-9.6-9.6v-12.8h-19.3v16.4   c0,16,12.9,28.9,28.9,28.9h0c16,0,28.9-12.9,28.9-28.9v-23.1H726.8z" />
	<g
   id="XMLID_256_">
		<path
   id="XMLID_279_"
   class="st9"
   d="M379.4,522.5c0.9-7.5,0.6-15-0.8-22.4c-0.9-3.8-5-6.8-8.6-6.6l0,0c-3.7,0.1-7.5,3.3-8.2,7.2    c-0.9,7.5-0.6,15,0.8,22.4c0.9,3.8,5,6.8,8.6,6.6l0,0C374.9,529.6,378.8,526.4,379.4,522.5z" />
		<g
   id="XMLID_257_">
			<path
   id="XMLID_276_"
   class="st4"
   d="M358,522.1c2.5-6.9,4.1-14.2,4.3-21.6c0.1-3.8-3.2-7.6-6.8-8.3l0,0c-3.6-0.7-8,1.5-9.4,5.1     c-2.7,6.9-4.1,14.2-4.3,21.6c-0.1,3.8,3.2,7.6,6.8,8.3l0,0C352.2,527.9,356.6,525.7,358,522.1z" />
			<path
   id="XMLID_273_"
   class="st9"
   d="M337.8,517c4-6,7.2-12.6,9.1-19.6c1-3.6-1.3-8-4.5-9.4l0,0c-3.4-1.5-8-0.5-10.1,2.6     c-4.1,5.9-7.2,12.6-9.1,19.6c-1,3.6,1.3,8,4.5,9.4l0,0C330.8,521.1,335.6,520,337.8,517z" />
			<path
   id="XMLID_270_"
   class="st9"
   d="M319.6,507.5c5.2-4.8,9.7-10.4,13.1-16.6c1.8-3.3,0.5-7.9-2.2-10l0,0     c-3-2.3-7.5-2.2-10.3,0.2c-5.3,4.7-9.7,10.4-13.1,16.6c-1.8,3.3-0.5,7.9,2.2,10l0,0C312,509.9,316.8,509.9,319.6,507.5z" />
			<path
   id="XMLID_267_"
   class="st9"
   d="M304.1,494.3c6-3.4,11.6-7.7,16.2-12.9c2.4-2.7,2.3-7.4,0.2-10l0,0     c-2.4-2.9-6.6-3.8-9.8-2.1c-6.1,3.3-11.6,7.7-16.2,12.9c-2.4,2.7-2.3,7.4-0.2,10l0,0C296.4,494.9,300.9,496,304.1,494.3z" />
			<path
   id="XMLID_264_"
   class="st9"
   d="M291.9,477.9c6.5-1.9,12.8-4.7,18.4-8.6c2.9-2,3.9-6.5,2.5-9.5l0,0     c-1.7-3.4-5.4-5.2-8.9-4.2c-6.6,1.8-12.8,4.7-18.4,8.6c-2.9,2-3.9,6.5-2.5,9.5l0,0C284.4,476.7,288.4,478.8,291.9,477.9z" />
			<path
   id="XMLID_261_"
   class="st9"
   d="M283.6,458.9c6.7-0.3,13.3-1.4,19.5-3.8c3.2-1.2,5.2-5.3,4.6-8.5l0,0     c-0.9-3.8-4-6.2-7.4-6.1c-6.7,0.1-13.3,1.4-19.5,3.8c-3.2,1.2-5.2,5.3-4.6,8.5l0,0C276.8,455.9,280.2,458.9,283.6,458.9z" />
			<path
   id="XMLID_258_"
   class="st9"
   d="M280.8,439.3c6.5,0.4,13-0.2,19.3-1.8c3.3-1,5.6-4.6,5.3-7.8l0,0c-0.5-3.9-3.3-6.3-6.7-6.7     c-6.5-0.4-13,0.2-19.3,1.8c-3.3,1-5.6,4.6-5.3,7.8l0,0C274.5,435.8,277.4,439,280.8,439.3z" />
		</g>
	</g>
	<g
   id="XMLID_247_">
		<path
   id="XMLID_255_"
   class="st10"
   d="M379.4,522.5c0.9-7.5,0.6-15-0.8-22.4c-0.9-3.8-5-6.8-8.6-6.6l0,0c-3.7,0.1-7.5,3.3-8.2,7.2    c-0.9,7.5-0.6,15,0.8,22.4c0.9,3.8,5,6.8,8.6,6.6l0,0C374.9,529.6,378.8,526.4,379.4,522.5z" />
		<path
   id="XMLID_254_"
   class="st10"
   d="M358,522.1c2.5-6.9,4.1-14.2,4.3-21.6c0.1-3.8-3.2-7.6-6.8-8.3l0,0c-3.6-0.7-8,1.5-9.4,5.1    c-2.7,6.9-4.1,14.2-4.3,21.6c-0.1,3.8,3.2,7.6,6.8,8.3l0,0C352.2,527.9,356.6,525.7,358,522.1z" />
		<path
   id="XMLID_253_"
   class="st10"
   d="M337.8,517c4-6,7.2-12.6,9.1-19.6c1-3.6-1.3-8-4.5-9.4l0,0c-3.4-1.5-8-0.5-10.1,2.6    c-4.1,5.9-7.2,12.6-9.1,19.6c-1,3.6,1.3,8,4.5,9.4l0,0C330.8,521.1,335.6,520,337.8,517z" />
		<path
   id="XMLID_252_"
   class="st10"
   d="M319.6,507.5c5.2-4.8,9.7-10.4,13.1-16.6c1.8-3.3,0.5-7.9-2.2-10l0,0    c-3-2.3-7.5-2.2-10.3,0.2c-5.3,4.7-9.7,10.4-13.1,16.6c-1.8,3.3-0.5,7.9,2.2,10l0,0C312,509.9,316.8,509.9,319.6,507.5z" />
		<path
   id="XMLID_251_"
   class="st10"
   d="M304.1,494.3c6-3.4,11.6-7.7,16.2-12.9c2.4-2.7,2.3-7.4,0.2-10l0,0    c-2.4-2.9-6.6-3.8-9.8-2.1c-6.1,3.3-11.6,7.7-16.2,12.9c-2.4,2.7-2.3,7.4-0.2,10l0,0C296.4,494.9,300.9,496,304.1,494.3z" />
		<path
   id="XMLID_250_"
   class="st10"
   d="M291.9,477.9c6.5-1.9,12.8-4.7,18.4-8.6c2.9-2,3.9-6.5,2.5-9.5l0,0    c-1.7-3.4-5.4-5.2-8.9-4.2c-6.6,1.8-12.8,4.7-18.4,8.6c-2.9,2-3.9,6.5-2.5,9.5l0,0C284.4,476.7,288.4,478.8,291.9,477.9z" />
		<path
   id="XMLID_249_"
   class="st10"
   d="M283.6,458.9c6.7-0.3,13.3-1.4,19.5-3.8c3.2-1.2,5.2-5.3,4.6-8.5l0,0    c-0.9-3.8-4-6.2-7.4-6.1c-6.7,0.1-13.3,1.4-19.5,3.8c-3.2,1.2-5.2,5.3-4.6,8.5l0,0C276.8,455.9,280.2,458.9,283.6,458.9z" />
		<path
   id="XMLID_248_"
   class="st10"
   d="M280.8,439.3c6.5,0.4,13-0.2,19.3-1.8c3.3-1,5.6-4.6,5.3-7.8l0,0c-0.5-3.9-3.3-6.3-6.7-6.7    c-6.5-0.4-13,0.2-19.3,1.8c-3.3,1-5.6,4.6-5.3,7.8l0,0C274.5,435.8,277.4,439,280.8,439.3z" />
	</g>
	<path
   id="XMLID_191_"
   class="st6"
   d="M278.5,371.7v19.5c0,5.3,4.3,9.6,9.6,9.6c5.3,0,9.6-4.3,9.6-9.6v-12.8h19.3v16.4   c0,16-12.9,28.9-28.9,28.9h0c-16,0-28.9-12.9-28.9-28.9v-23.1H278.5z" />
	<path
   id="XMLID_183_"
   class="st8"
   d="M294,398.9c2.3-1.8,3.8-4.5,3.8-7.6V383c0-0.8,0.1-1.7,0.1-2.5c0-0.7,0-1.3,0-2h19.2v16.4   c0,16-12.9,28.9-28.9,28.9h0c-5.2,0-10.1-1.4-14.3-3.8C282.7,415.7,289.9,408.2,294,398.9z" />
	<path
   id="XMLID_84_"
   class="st7"
   d="M278.5,371.7v19.5c0,5.3,4.3,9.6,9.6,9.6c5.3,0,9.6-4.3,9.6-9.6v-12.8h19.3v16.4   c0,16-12.9,28.9-28.9,28.9h0c-16,0-28.9-12.9-28.9-28.9v-23.1H278.5z" />
	<path
   id="XMLID_52_"
   class="st8"
   d="M608.7,326.1h-16v-82h16c4.4,0,8,3.6,8,8v66C616.7,322.6,613.1,326.1,608.7,326.1z" />
	<path
   id="XMLID_20_"
   class="st11"
   d="M608.7,244.1h-16v11h16c4.4,0,8,3.6,8,8v-11C616.7,247.7,613.1,244.1,608.7,244.1z" />
	<path
   id="XMLID_15_"
   class="st7"
   d="M608.7,326.1h-16v-82h16c4.4,0,8,3.6,8,8v66C616.7,322.6,613.1,326.1,608.7,326.1z" />
	<line
   id="XMLID_93_"
   class="st7"
   x1="392.9"
   y1="285.1"
   x2="356.9"
   y2="285.1" />
	<circle
   id="XMLID_69_"
   class="st8"
   cx="340.9"
   cy="285.1"
   r="16" />
	<circle
   id="XMLID_92_"
   class="st7"
   cx="340.9"
   cy="285.1"
   r="16" />
	<path
   id="XMLID_67_"
   class="st8"
   d="M396.7,326.1h16v-82h-16c-4.4,0-8,3.6-8,8v66C388.7,322.6,392.3,326.1,396.7,326.1z" />
	<path
   id="XMLID_23_"
   class="st12"
   d="M396.7,244.1c-4.4,0-8,3.6-8,8v11c0-4.4,3.6-8,8-8h16v-11H396.7z" />
	<path
   id="XMLID_94_"
   class="st7"
   d="M396.7,326.1h16v-82h-16c-4.4,0-8,3.6-8,8v66C388.7,322.6,392.3,326.1,396.7,326.1z" />
	<path
   id="XMLID_5_"
   class="st7"
   d="M608.7,326.1h-16v-82h16c4.4,0,8,3.6,8,8v66C616.7,322.6,613.1,326.1,608.7,326.1z" />
	<path
   id="XMLID_4_"
   class="st7"
   d="M396.7,326.1h16v-82h-16c-4.4,0-8,3.6-8,8v66C388.7,322.6,392.3,326.1,396.7,326.1z" />
	<path
   id="XMLID_88_"
   class="st5"
   d="M556.7,379.1h-108c-22.1,0-40-17.9-40-40v-108c0-22.1,17.9-40,40-40h108c22.1,0,40,17.9,40,40   v108C596.7,361.2,578.8,379.1,556.7,379.1z" />
	<path
   id="XMLID_39_"
   class="st5"
   d="M556.7,379.1h-108c-22.1,0-40-17.9-40-40v-108c0-22.1,17.9-40,40-40h108c22.1,0,40,17.9,40,40   v108C596.7,361.2,578.8,379.1,556.7,379.1z" />
	<path
   id="XMLID_108_"
   class="st5"
   d="M556.7,379.1h-108c-22.1,0-40-17.9-40-40v-108c0-22.1,17.9-40,40-40h108c22.1,0,40,17.9,40,40   v108C596.7,361.2,578.8,379.1,556.7,379.1z" />
	<path
   id="XMLID_133_"
   class="st11"
   d="M556.7,191.1h-108c-22.1,0-40,17.9-40,40v9.9c0-22.1,17.9-40,40-40h108c22.1,0,40,17.9,40,40   v-9.9C596.7,209,578.8,191.1,556.7,191.1z" />
	<path
   id="XMLID_154_"
   class="st8"
   d="M556.7,362.7h-108c-22.1,0-40-13-40-35.1v11.5c0,22.1,17.9,40,40,40h108c22.1,0,40-17.9,40-40   v-11.5C596.7,349.8,578.8,362.7,556.7,362.7z" />
	<path
   id="XMLID_2_"
   class="st7"
   d="M556.7,379.1h-108c-22.1,0-40-17.9-40-40v-108c0-22.1,17.9-40,40-40h108c22.1,0,40,17.9,40,40   v108C596.7,361.2,578.8,379.1,556.7,379.1z" />
	<ellipse
   id="XMLID_90_"
   class="st13"
   cx="502.7"
   cy="191.1"
   rx="40"
   ry="22" />
	<ellipse
   id="XMLID_76_"
   class="st14"
   cx="502.7"
   cy="191.1"
   rx="40"
   ry="22" />
	<ellipse
   id="XMLID_38_"
   class="st5"
   cx="502.7"
   cy="191.1"
   rx="40"
   ry="18.9" />
	<path
   id="XMLID_126_"
   class="st8"
   d="M541.4,186.6c-3,10.5-19.5,13.5-39.5,13.5c-18.6,0-34.2-1.9-38.7-11.3   c-0.3,1.1-0.5-1.8-0.5-0.6c0,12.1,17.9,21.9,40,21.9s40-9.8,40-21.9C542.7,186.2,542.2,188.3,541.4,186.6z" />
	<ellipse
   id="XMLID_6_"
   class="st7"
   cx="502.7"
   cy="191.1"
   rx="40"
   ry="18.9" />
	<circle
   id="XMLID_74_"
   class="st15"
   cx="502.7"
   cy="284.3"
   r="42.1" />
	<circle
   id="XMLID_89_"
   class="st12"
   cx="502.7"
   cy="277.6"
   r="42.1" />
	<circle
   id="XMLID_7_"
   class="st7"
   cx="502.7"
   cy="277.6"
   r="42.1" />
	<circle
   id="XMLID_58_"
   class="st16"
   cx="501.9"
   cy="287"
   r="20.9" />
	<circle
   id="XMLID_54_"
   class="st7"
   cx="501.9"
   cy="287"
   r="20.9" />
	<circle
   id="XMLID_55_"
   class="st4"
   cx="501.9"
   cy="287"
   r="11.1" />
	<g
   id="XMLID_107_">
		<g
   id="XMLID_239_">
			<line
   id="XMLID_246_"
   class="st17"
   x1="546.9"
   y1="346.7"
   x2="546.9"
   y2="354.7" />
			<line
   id="XMLID_245_"
   class="st17"
   x1="532.1"
   y1="345.1"
   x2="532.1"
   y2="356.4" />
			<line
   id="XMLID_244_"
   class="st17"
   x1="517.4"
   y1="343.4"
   x2="517.4"
   y2="358.1" />
			<line
   id="XMLID_243_"
   class="st17"
   x1="502.7"
   y1="341.7"
   x2="502.7"
   y2="359.7" />
			<line
   id="XMLID_242_"
   class="st17"
   x1="458.5"
   y1="346.7"
   x2="458.5"
   y2="354.7" />
			<line
   id="XMLID_241_"
   class="st17"
   x1="473.2"
   y1="345.1"
   x2="473.2"
   y2="356.4" />
			<line
   id="XMLID_240_"
   class="st17"
   x1="488"
   y1="343.4"
   x2="488"
   y2="358.1" />
		</g>
	</g>
	<g
   id="XMLID_8_">
		<g
   id="XMLID_220_">
			<line
   id="XMLID_227_"
   class="st7"
   x1="546.9"
   y1="343.7"
   x2="546.9"
   y2="351.7" />
			<line
   id="XMLID_226_"
   class="st7"
   x1="532.1"
   y1="342.1"
   x2="532.1"
   y2="353.4" />
			<line
   id="XMLID_225_"
   class="st7"
   x1="517.4"
   y1="340.4"
   x2="517.4"
   y2="355.1" />
			<line
   id="XMLID_224_"
   class="st7"
   x1="502.7"
   y1="338.7"
   x2="502.7"
   y2="356.7" />
			<line
   id="XMLID_223_"
   class="st7"
   x1="458.5"
   y1="343.7"
   x2="458.5"
   y2="351.7" />
			<line
   id="XMLID_222_"
   class="st7"
   x1="473.2"
   y1="342.1"
   x2="473.2"
   y2="353.4" />
			<line
   id="XMLID_221_"
   class="st7"
   x1="488"
   y1="340.4"
   x2="488"
   y2="355.1" />
		</g>
	</g>
	<rect
   id="XMLID_91_"
   x="486.7"
   y="379.1"
   class="st6"
   width="32"
   height="44" />
	<rect
   id="XMLID_87_"
   x="486.7"
   y="379.1"
   class="st4"
   width="32"
   height="16.4" />
	<rect
   id="XMLID_18_"
   x="486.7"
   y="379.1"
   class="st7"
   width="32"
   height="44" />
	<path
   id="XMLID_95_"
   class="st5"
   d="M638.3,530.2c-18.4,50-49.4,93.9-89.1,127.9c-26.7,22.9-66.3,22.9-93,0   c-39.7-34-70.7-77.9-89.1-127.9c-14.5-39.3,7.3-82.4,47.4-94.3c27.9-8.3,57.5-12.8,88.2-12.8s60.2,4.5,88.2,12.8   C631,447.8,652.8,490.9,638.3,530.2z" />
	<path
   id="XMLID_119_"
   class="st5"
   d="M638.3,530.2c-18.4,50-49.4,93.9-89.1,127.9c-26.7,22.9-66.3,22.9-93,0   c-39.7-34-70.7-77.9-89.1-127.9c-14.5-39.3,7.3-82.4,47.4-94.3c27.9-8.3,57.5-12.8,88.2-12.8s60.2,4.5,88.2,12.8   C631,447.8,652.8,490.9,638.3,530.2z" />
	<path
   id="XMLID_195_"
   class="st11"
   d="M414.5,443.9c27.9-8.3,57.5-12.8,88.2-12.8s60.2,4.5,88.2,12.8c30.3,9,50.1,35.7,51.8,65.2   c1.8-32.5-18.8-63.4-51.8-73.2c-27.9-8.3-57.5-12.8-88.2-12.8s-60.2,4.5-88.2,12.8c-33,9.8-53.6,40.7-51.8,73.2   C364.4,479.7,384.2,452.9,414.5,443.9z" />
	<path
   id="XMLID_175_"
   class="st6"
   d="M551.3,624c-27.9,22.9-69.4,22.9-97.3,0c-40.2-32.9-71.8-75-91.3-122.9   c-0.5,9.6,0.8,19.5,4.4,29.1c18.4,50,49.4,93.9,89.1,127.9c26.7,22.9,66.3,22.9,93,0c39.7-34,70.7-77.9,89.1-127.9   c3.6-9.6,4.9-19.5,4.4-29.1C623.2,549,591.5,591.1,551.3,624z" />
	<path
   id="XMLID_28_"
   class="st7"
   d="M638.3,530.2c-18.4,50-49.4,93.9-89.1,127.9c-26.7,22.9-66.3,22.9-93,0   c-39.7-34-70.7-77.9-89.1-127.9c-14.5-39.3,7.3-82.4,47.4-94.3c27.9-8.3,57.5-12.8,88.2-12.8s60.2,4.5,88.2,12.8   C631,447.8,652.8,490.9,638.3,530.2z" />
	<linearGradient
   id="XMLID_198_"
   gradientUnits="userSpaceOnUse"
   x1="502.6864"
   y1="552.9848"
   x2="502.6864"
   y2="488.9848">
		<stop
   offset="0"
   style="stop-color:#57AA63"
   id="stop750" />
		<stop
   offset="1"
   style="stop-color:#9AA642"
   id="stop752" />
	</linearGradient>
	<path
   id="XMLID_96_"
   class="st18"
   d="M547,553h-88.7c-6.4,0-11.7-5.2-11.7-11.7v-40.7c0-6.4,5.2-11.7,11.7-11.7H547   c6.4,0,11.7,5.2,11.7,11.7v40.7C558.7,547.8,553.5,553,547,553z" />
	<polyline
   id="XMLID_21_"
   class="st19"
   points="446.7,535 460.8,510.8 472.2,544.6 488.3,507.9 500.8,534.3 509.8,500.3    526.2,544.6 540.9,508.4 558.7,534.3  " />
	<path
   id="XMLID_103_"
   class="st20"
   d="M548.6,509.1h-91.9c-5.6,0-10.1-4.5-10.1-10.1l0,0c0-5.6,4.5-10.1,10.1-10.1h91.9   c5.6,0,10.1,4.5,10.1,10.1l0,0C558.7,504.6,554.2,509.1,548.6,509.1z" />
	<path
   id="XMLID_19_"
   class="st10"
   d="M547,553h-88.7c-6.4,0-11.7-5.2-11.7-11.7v-40.7c0-6.4,5.2-11.7,11.7-11.7H547   c6.4,0,11.7,5.2,11.7,11.7v40.7C558.7,547.8,553.5,553,547,553z" />
	<ellipse
   id="XMLID_51_"
   class="st11"
   cx="502.7"
   cy="185.5"
   rx="13.5"
   ry="5.6" />
	<ellipse
   id="XMLID_70_"
   class="st12"
   cx="501.4"
   cy="279.1"
   rx="6.3"
   ry="4.9" />
	<ellipse
   id="XMLID_116_"
   class="st11"
   cx="666.1"
   cy="280.1"
   rx="5.2"
   ry="4" />
	<ellipse
   id="XMLID_134_"
   class="st11"
   cx="339.3"
   cy="280.1"
   rx="5.2"
   ry="4" />
	<circle
   id="XMLID_25_"
   class="st6"
   cx="503.3"
   cy="575.7"
   r="11.7" />
	<circle
   id="XMLID_9_"
   class="st21"
   cx="503.3"
   cy="575.7"
   r="11.7" />
	<path
   id="XMLID_37_"
   class="st4"
   d="M509.8,573.3l-1.3-2.2c-0.2-0.3-0.6-0.5-1-0.3l0,0c-1.1,0.6-2.4-0.2-2.4-1.4l0,0   c0-0.4-0.3-0.7-0.7-0.7h-2.5c-0.4,0-0.7,0.3-0.7,0.7v0c0,1.2-1.3,2-2.4,1.4l0,0c-0.3-0.2-0.8-0.1-1,0.3l-1.3,2.2   c-0.2,0.3-0.1,0.8,0.3,1l0,0c1.1,0.6,1.1,2.1,0,2.7l0,0c-0.3,0.2-0.5,0.6-0.3,1l1.3,2.2c0.2,0.3,0.6,0.5,1,0.3l0,0   c1.1-0.6,2.4,0.2,2.4,1.4v0c0,0.4,0.3,0.7,0.7,0.7h2.5c0.4,0,0.7-0.3,0.7-0.7l0,0c0-1.2,1.3-2,2.4-1.4l0,0c0.3,0.2,0.8,0.1,1-0.3   l1.3-2.2c0.2-0.3,0.1-0.8-0.3-1l0,0c-1.1-0.6-1.1-2.1,0-2.7l0,0C509.9,574.1,510,573.7,509.8,573.3z" />
</g>








<linearGradient
   id="XMLID_202_"
   gradientUnits="userSpaceOnUse"
   x1="-348.0031"
   y1="292.1782"
   x2="-275.6718"
   y2="292.1782">
	<stop
   offset="0"
   style="stop-color:#57AA63"
   id="stop776" />
	<stop
   offset="1"
   style="stop-color:#9AA642"
   id="stop778" />
</linearGradient>


</svg>