<?xml version="1.0" encoding="UTF-8" standalone="no"?>
<!-- Generator: Adobe Illustrator 23.1.1, SVG Export Plug-In . SVG Version: 6.00 Build 0)  -->

<svg
   xmlns:dc="http://purl.org/dc/elements/1.1/"
   xmlns:cc="http://creativecommons.org/ns#"
   xmlns:rdf="http://www.w3.org/1999/02/22-rdf-syntax-ns#"
   xmlns:svg="http://www.w3.org/2000/svg"
   xmlns="http://www.w3.org/2000/svg"
   xmlns:sodipodi="http://sodipodi.sourceforge.net/DTD/sodipodi-0.dtd"
   xmlns:inkscape="http://www.inkscape.org/namespaces/inkscape"
   version="1.1"
   id="Layer_1"
   x="0px"
   y="0px"
   viewBox="0 0 1000 1000"
   style="enable-background:new 0 0 1000 1000;"
   xml:space="preserve"
   sodipodi:docname="toolbox.svg"
   inkscape:version="0.92.5 (2060ec1f9f, 2020-04-08)"><metadata
   id="metadata5015"><rdf:RDF><cc:Work
       rdf:about=""><dc:format>image/svg+xml</dc:format><dc:type
         rdf:resource="http://purl.org/dc/dcmitype/StillImage" /></cc:Work></rdf:RDF></metadata><sodipodi:namedview
   pagecolor="#ffffff"
   bordercolor="#666666"
   borderopacity="1"
   objecttolerance="10"
   gridtolerance="10"
   guidetolerance="10"
   inkscape:pageopacity="0"
   inkscape:pageshadow="2"
   inkscape:window-width="1274"
   inkscape:window-height="1395"
   id="namedview5013"
   showgrid="false"
   inkscape:zoom="2.6700352"
   inkscape:cx="662.22711"
   inkscape:cy="572.89597"
   inkscape:window-x="1282"
   inkscape:window-y="4"
   inkscape:window-maximized="0"
   inkscape:current-layer="Layer_1" />
<style
   type="text/css"
   id="style4774">
	.st0{fill:#383333;}
	.st1{fill:#EEF2F4;}
	.st2{fill:#2B2727;}
	.st3{fill:#72361F;}
	.st4{fill:#5B3318;}
	.st5{fill:#783F21;}
	.st6{opacity:0.44;fill:#72361F;}
	.st7{filter:url(#Adobe_OpacityMaskFilter);}
	.st8{mask:url(#XMLID_54_);}
	.st9{fill:none;stroke:#300F0F;stroke-width:6;stroke-linecap:round;stroke-linejoin:round;stroke-miterlimit:10;}
	.st10{fill:#C9C9C9;}
	.st11{fill:#B5B5B5;}
	.st12{fill:#F45145;}
	.st13{fill:#DB493E;}
	.st14{fill:#AA3930;}
	.st15{fill:#ABABAB;}
	.st16{fill:#3B69A9;}
	.st17{fill:#355E98;}
	.st18{opacity:0.23;fill:#72361F;}
	.st19{fill:#E1E1E1;}
	.st20{fill:#FDC457;}
	.st21{fill:#F2B24C;}
	.st22{fill:#323B40;}
	.st23{fill:#2D363A;}
	.st24{fill:#7D4025;}
	.st25{filter:url(#Adobe_OpacityMaskFilter_1_);}
	.st26{fill:#FFFFFF;}
	.st27{opacity:8.000000e-02;mask:url(#XMLID_59_);}
	.st28{fill:none;stroke:#300F0F;stroke-width:5.8435;stroke-linecap:round;stroke-linejoin:round;stroke-miterlimit:10;}
	.st29{fill:none;stroke:#300F0F;stroke-width:7.8052;stroke-linecap:round;stroke-linejoin:round;stroke-miterlimit:10;}
	.st30{fill:none;stroke:#300F0F;stroke-width:5.3519;stroke-linecap:round;stroke-linejoin:round;stroke-miterlimit:10;}
	.st31{fill:#D98C40;}
	.st32{fill:#C87634;}
	.st33{filter:url(#Adobe_OpacityMaskFilter_2_);}
	.st34{mask:url(#XMLID_120_);}
	.st35{fill:none;stroke:#CF8139;stroke-width:6;stroke-linecap:round;stroke-linejoin:round;stroke-miterlimit:10;}
	.st36{fill:none;stroke:#CF8139;stroke-width:4.9126;stroke-linecap:round;stroke-linejoin:round;stroke-miterlimit:10;}
</style>


<path
   id="XMLID_30_"
   class="st2"
   d="M785.7,676H191.6c-13.4,0-24.2-10.8-24.2-24.2v0c0-13.4,10.8-24.2,24.2-24.2h594.1  c13.4,0,24.2,10.8,24.2,24.2v0C809.9,665.1,799.1,676,785.7,676z" />
<path
   id="XMLID_46_"
   class="st3"
   d="M706.3,412.9V361c0-19.9-16.1-36-36-36h0c-19.9,0-36,16.1-36,36v51.8c0,33.1-26.9,60-60,60h0  v152c0,13.3,10.7,24,24,24h144c13.3,0,24-10.7,24-24v-152h0C733.1,472.9,706.3,446,706.3,412.9z" />
<rect
   id="XMLID_2_"
   x="656.3"
   y="325"
   class="st3"
   width="16.4"
   height="8.3" />
<path
   id="XMLID_43_"
   class="st4"
   d="M692.3,412.9V361c0-19.9-16.1-36-36-36h0c-19.9,0-36,16.1-36,36v51.8c0,33.1-26.9,60-60,60h0  v152c0,13.3,10.7,24,24,24h144c13.3,0,24-10.7,24-24v-152h0C719.1,472.9,692.3,446,692.3,412.9z" />
<path
   id="XMLID_20_"
   class="st4"
   d="M752.3,472.9L752.3,472.9c-22.6,0-42.2-12.5-52.5-30.9l-55.5,22.4L616.2,480l66.6,10.4  l69.5-13.8V472.9z" />
<circle
   id="XMLID_31_"
   class="st5"
   cx="656.3"
   cy="361.7"
   r="12" />
<rect
   id="XMLID_1_"
   x="311.3"
   y="325"
   class="st3"
   width="14"
   height="3.7" />
<rect
   id="XMLID_28_"
   x="311.3"
   y="349.7"
   class="st5"
   width="345.1"
   height="24" />
<rect
   id="XMLID_101_"
   x="443.2"
   y="349.7"
   class="st6"
   width="15.9"
   height="23.8" />
<rect
   id="XMLID_134_"
   x="356.4"
   y="349.7"
   class="st6"
   width="25.1"
   height="23.8" />
<rect
   id="XMLID_103_"
   x="552.3"
   y="349.7"
   class="st6"
   width="22"
   height="23.8" />
<defs
   id="defs4881">
	<filter
   id="Adobe_OpacityMaskFilter"
   filterUnits="userSpaceOnUse"
   x="328.5"
   y="313.7"
   width="330"
   height="83">
		<feColorMatrix
   type="matrix"
   values="1 0 0 0 0  0 1 0 0 0  0 0 1 0 0  0 0 0 1 0"
   id="feColorMatrix4878" />
	</filter>
</defs>
<mask
   maskUnits="userSpaceOnUse"
   x="328.5"
   y="313.7"
   width="330"
   height="83"
   id="XMLID_54_">
	<g
   id="XMLID_100_"
   class="st7">
		<rect
   id="XMLID_94_"
   x="311.3"
   y="349.7"
   class="st5"
   width="345.1"
   height="24" />
	</g>
</mask>
<g
   id="XMLID_82_"
   class="st8"
   mask="url(#XMLID_54_)">
	<path
   id="XMLID_11_"
   class="st9"
   d="M331.5,316.7c1.2,8.3,8.1,53.2,41.3,68.7c4,1.9,20.1,9.4,28.7,2.7c11.3-8.9-3.1-33.2,9.3-48   c8-9.6,23.7-11,34-9.3c35.6,5.9,36.3,54.3,70.7,62c21.8,4.9,44.8-9.3,56.7-16.7c24.8-15.3,29.2-31.7,44-32   c9.1-0.2,22.5,5.6,39.3,35.3" />
	<path
   id="XMLID_10_"
   class="st9"
   d="M358.8,336c-3.8,5.8-4.4,13-1.3,18.7c3,5.5,8.3,7.5,10,8c1.8,0.6,8.3,2.3,14-1.3   c5.6-3.6,8.4-11.1,6.7-18.7" />
	<path
   id="XMLID_95_"
   class="st9"
   d="M422.1,376c-0.5-1.4-4.9-14.1,2.7-25.3c0.4-0.7,6.9-10.1,15.3-10.7   c11.9-0.9,26.6,15.9,31.3,43.3" />
	<path
   id="XMLID_96_"
   class="st9"
   d="M438.1,358c-3.4,1.7-4,8.6-2,13.3c0.4,0.9,2.9,6.6,7.3,6.7c4.3,0.1,8.2-5.3,8-10   C451.2,361.2,442.3,356,438.1,358z" />
	<path
   id="XMLID_97_"
   class="st9"
   d="M495.5,335.4c0.3,3.3,1.2,9.6,5.3,16c5.9,9.2,14.3,12.8,17.3,14c2.9,1.2,12.1,4.8,22.7,2   c7-1.8,9.8-5.3,27.3-21.3c6.1-5.6,11.1-10,14-12.7" />
	<path
   id="XMLID_98_"
   class="st9"
   d="M599.5,380c0.9-8.2,6.3-14.8,13.3-16.7c0.7-0.2,9.9-2.5,16,4c4.4,4.7,4.1,10.8,4,12" />
	<path
   id="XMLID_99_"
   class="st9"
   d="M527.5,338c0,9.1,4.4,15.8,9.3,16.7c4.2,0.7,8.2-3,10-4.7c5-4.6,6.3-10.4,6.7-12.7" />
</g>
<g
   id="XMLID_107_">
	<polygon
   id="XMLID_26_"
   class="st10"
   points="433.5,341.2 433.4,341.2 424.7,317.8 424.7,317.8 424.7,317.8 424.7,317.8    424.7,317.8 431.8,285.2 450.7,285.2 457.9,317.8 457.9,317.8 457.9,317.8 457.9,317.8 457.9,317.8 449.1,341.2 449.1,341.2    449.1,411.5 433.5,411.5  " />
	<polygon
   id="XMLID_24_"
   class="st11"
   points="444.1,341.2 452.9,317.8 452.9,317.8 452.9,317.8 452.9,317.8 445.7,285.2    450.7,285.2 457.9,317.8 457.9,317.8 457.9,317.8 457.9,317.8 449.1,341.2 449.1,341.2 449.1,411.5 444.1,411.5 444.1,341.2  " />
	<path
   id="XMLID_15_"
   class="st12"
   d="M417.2,556.4V442.3c0-5.5,3.3-10.3,8.1-12.3c2-0.8,2.3-3.5,0.6-4.9l-6.7-5.6   c-1.8-1.5-2.8-3.7-2.8-6v-5.3c0-2,1.6-3.6,3.6-3.6h42.4c2,0,3.6,1.6,3.6,3.6v5.3c0,2.3-1,4.5-2.8,6l-6.7,5.6   c-1.6,1.4-1.3,4,0.6,4.9c4.8,2.1,8.1,6.8,8.1,12.3v114.1c0,7.4-6,13.4-13.4,13.4h-21.4C423.2,569.9,417.2,563.8,417.2,556.4z" />
	<path
   id="XMLID_16_"
   class="st13"
   d="M457.4,556.4V442.3c0-5.5-3.3-10.3-8.1-12.3c-2-0.8-2.3-3.5-0.6-4.9l6.7-5.6   c1.8-1.5,2.8-3.7,2.8-6v-5.3c0-2-1.6-3.6-3.6-3.6h8c2,0,3.6,1.6,3.6,3.6v5.3c0,2.3-1,4.5-2.8,6l-6.7,5.6c-1.6,1.4-1.3,4,0.6,4.9   c4.8,2.1,8.1,6.8,8.1,12.3v114.1c0,7.4-6,13.4-13.4,13.4h-8C451.4,569.9,457.4,563.8,457.4,556.4z" />
	<path
   id="XMLID_23_"
   class="st14"
   d="M437,550.3v-95.3c0-2.8-2.2-5-5-5h0c-2.8,0-5,2.2-5,5v95.3c0,2.8,2.2,5,5,5h0   C434.8,555.3,437,553,437,550.3z" />
	<path
   id="XMLID_25_"
   class="st14"
   d="M455.5,550.3v-95.3c0-2.8-2.2-5-5-5l0,0c-2.8,0-5,2.2-5,5v95.3c0,2.8,2.2,5,5,5l0,0   C453.3,555.3,455.5,553,455.5,550.3z" />
</g>
<g
   id="XMLID_108_">
	<path
   id="XMLID_9_"
   class="st10"
   d="M583.4,284.7c-1.6,1.8-4,4.4-6,6.6c-2.1,2.3-5.6,2.7-8.2,0.8c-5.7-4.1-15.1-11.2-27-12.1   c-17.2-1.4-28.8,4.7-39.3,12.9c-15.5,12.2-25.3,26.8-30.5,35.8c3.9,3.4,5.6,4.4,8.6,6.9c4.9-5.1,14.5-15.8,28.1-19.2   c2.1-0.5,5.8-1.4,10.2,0c1.5,0.5,4.3,1.6,6.8,4.4c4.3,4.8,4,10.7,4,12v38.8h25.5v-37.1c-0.5-6.5,2.3-12.5,7.2-15   c0.4-0.2,5.2-2.6,9.9-0.8c3.4,1.3,7.6,5.2,10.8,8.3c0.3,0.3,1.1,1,2.4,1.5c0.7,0.2,1.5,0.4,2.2,0.3c4.6-0.1,14-0.3,20.5-0.6   c3.1-0.1,5.5-2.6,5.5-5.7v-33.8c0-3.1-2.5-5.6-5.6-5.7c-6.2-0.1-15-0.3-20.3-0.4C586.4,282.6,584.6,283.4,583.4,284.7z" />
	<g
   id="XMLID_12_">
		<path
   id="XMLID_27_"
   class="st15"
   d="M517.2,314.6c-2.8-3.2-6.2-4.5-7.8-5.1c-5-1.6-9.4-0.6-11.8,0c-7.5,1.8-13.9,5.6-19.2,9.7    c-2.4,3.5-4.4,6.7-6,9.4c3.9,3.4,5.6,4.4,8.6,6.9c4.9-5.1,14.5-15.8,28.1-19.2c1.9-0.5,5.3-1.3,9.3-0.3    C518.1,315.7,517.7,315.2,517.2,314.6z" />
		<path
   id="XMLID_44_"
   class="st15"
   d="M612.7,323.2c-7.5,0.2-18.4,0.5-23.7,0.6c-0.9,0-1.8-0.1-2.6-0.4c-1.5-0.5-2.5-1.4-2.8-1.7    c-3.7-3.5-8.6-8-12.5-9.5c-5.4-2.1-11,0.8-11.4,1c-5.6,3-8.8,9.8-8.3,17.4v41.2h4.3v-37.1c-0.5-6.5,2.3-12.5,7.2-15    c0.4-0.2,5.2-2.6,9.9-0.8c3.4,1.3,7.6,5.2,10.8,8.3c0.3,0.3,1.1,1,2.4,1.5c0.7,0.2,1.5,0.4,2.2,0.3c4.6-0.1,14-0.3,20.5-0.6    c2.9-0.1,5.3-2.4,5.5-5.2C613.7,323.1,613.2,323.2,612.7,323.2z" />
	</g>
	<path
   id="XMLID_4_"
   class="st16"
   d="M546,548.7h-4.8c-12.6,0-22.6-12.4-22.2-27.3l4.7-149.7h39.8l4.7,149.7   C568.6,536.3,558.6,548.7,546,548.7z" />
	<path
   id="XMLID_93_"
   class="st17"
   d="M568.2,521.4l-4.7-149.7h-9.7l4.7,149.7c0.4,13.9-8.3,25.6-19.7,27.1c0.8,0.1,1.6,0.2,2.4,0.2   h4.8C558.6,548.7,568.6,536.3,568.2,521.4z" />
	<path
   id="XMLID_7_"
   class="st17"
   d="M568.7,383.8h-50.2c-3.3,0-6-2.7-6-6l0,0c0-3.3,2.7-6,6-6h50.2c3.3,0,6,2.7,6,6l0,0   C574.7,381.1,572,383.8,568.7,383.8z" />
</g>
<polygon
   id="XMLID_102_"
   class="st18"
   points="521.8,437.5 564.5,408.1 565.4,435.2 521.1,460 " />
<g
   id="XMLID_109_">
	<polygon
   id="XMLID_70_"
   class="st10"
   points="682.2,322.6 416.5,528.4 468.4,595.3 762.7,425.5  " />
	<polygon
   id="XMLID_65_"
   class="st19"
   points="751.1,408.7 455.6,578.7 468.8,595.6 759,427.6  " />
	<path
   id="XMLID_13_"
   class="st20"
   d="M823.4,357.7l-54.7-70.6c-8.4-10.9-24.1-12.9-35-4.4l-5.8,4.5l20.4,26.3l0,0   c1.4-0.5,2.8-0.7,4.3-0.7c0,0,0.1,0,0.1,0c0.3,0,0.7,0,1,0c0.1,0,0.1,0,0.2,0c0.9,0.1,1.9,0.2,2.8,0.5c0.1,0,0.3,0.1,0.4,0.1   c0.2,0.1,0.4,0.1,0.7,0.2c0.2,0.1,0.4,0.1,0.6,0.2c0.2,0.1,0.4,0.2,0.6,0.2c0.2,0.1,0.5,0.2,0.7,0.3c0.1,0.1,0.3,0.1,0.4,0.2   c0.4,0.2,0.7,0.4,1,0.7c0.1,0.1,0.2,0.2,0.4,0.3c0.2,0.2,0.5,0.4,0.7,0.5c0.1,0.1,0.2,0.2,0.4,0.3c0.2,0.2,0.4,0.4,0.7,0.6   c0.1,0.1,0.2,0.2,0.3,0.3c0.3,0.3,0.6,0.7,0.9,1l26,33.6c0.3,0.4,0.5,0.7,0.8,1.1c0.1,0.1,0.1,0.2,0.2,0.4c0.2,0.3,0.3,0.5,0.4,0.8   c0.1,0.1,0.1,0.3,0.2,0.4c0.1,0.3,0.2,0.5,0.4,0.8c0.1,0.1,0.1,0.3,0.2,0.4c0.1,0.4,0.3,0.8,0.4,1.2c0,0.2,0.1,0.3,0.1,0.5   c0.1,0.3,0.1,0.5,0.2,0.8c0,0.2,0.1,0.4,0.1,0.6c0,0.2,0,0.4,0.1,0.6c0,0.2,0,0.5,0.1,0.7c0,0.2,0,0.3,0,0.5c0,1-0.1,1.9-0.2,2.8   c0,0.1,0,0.1,0,0.2c-0.1,0.3-0.1,0.6-0.2,1c0,0,0,0.1,0,0.1c-0.4,1.4-1,2.7-1.8,4c0,0,0,0,0,0l21.6,27.9l3.4-2   C829.3,387.1,832.7,369.7,823.4,357.7z"
   style="fill:#27c24e;fill-opacity:1" />
	<g
   id="XMLID_135_">
		<path
   id="XMLID_146_"
   class="st21"
   d="M784.7,344.5l-26-33.6c-0.3-0.4-0.6-0.7-0.9-1c-0.1-0.1-0.2-0.2-0.3-0.3    c-0.2-0.2-0.4-0.4-0.7-0.6c-0.1-0.1-0.2-0.2-0.4-0.3c-0.2-0.2-0.5-0.4-0.7-0.5c-0.1-0.1-0.2-0.2-0.4-0.3c-0.3-0.2-0.7-0.5-1-0.7    c-0.1-0.1-0.3-0.1-0.4-0.2c-0.2-0.1-0.5-0.2-0.7-0.3c-0.2-0.1-0.4-0.2-0.6-0.2c-0.2-0.1-0.4-0.1-0.6-0.2c-0.2-0.1-0.4-0.2-0.7-0.2    c-0.1,0-0.3-0.1-0.4-0.1c-0.9-0.3-1.9-0.4-2.8-0.5c-0.1,0-0.1,0-0.2,0c-0.3,0-0.7,0-1,0c0,0-0.1,0-0.1,0c-1.4,0-2.9,0.3-4.3,0.7    c0,0,0,0,0,0L728,287.1l0,0l20.4,26.3l0,0c1.4-0.5,2.8-0.7,4.3-0.7c0,0,0.1,0,0.1,0c0.3,0,0.7,0,1,0c0.1,0,0.1,0,0.2,0    c0.9,0.1,1.9,0.2,2.8,0.5c0.1,0,0.3,0.1,0.4,0.1c0.2,0.1,0.4,0.1,0.7,0.2c0.2,0.1,0.4,0.1,0.6,0.2c0.2,0.1,0.4,0.2,0.6,0.2    c0.2,0.1,0.5,0.2,0.7,0.3c0.1,0.1,0.3,0.1,0.4,0.2c0.4,0.2,0.7,0.4,1,0.7c0.1,0.1,0.2,0.2,0.4,0.3c0.2,0.2,0.5,0.4,0.7,0.5    c0.1,0.1,0.2,0.2,0.4,0.3c0.2,0.2,0.4,0.4,0.7,0.6c0.1,0.1,0.2,0.2,0.3,0.3c0.3,0.3,0.6,0.7,0.9,1l20.7,26.7    C785,344.9,784.8,344.7,784.7,344.5z"
   style="fill:#1f9b3e;fill-opacity:1" />
		<path
   id="XMLID_149_"
   class="st21"
   d="M823.4,357.7l-4.9-6.3c8.2,11.9,4.6,28.4-8.1,35.8l-3.4,2l-15.8-20.5c0,0,0,0,0,0    c0,0,0,0,0,0l21.6,27.9l3.4-2C829.3,387.1,832.7,369.7,823.4,357.7z"
   style="fill:#1f9b3e;fill-opacity:1" />
	</g>
	<g
   id="XMLID_45_">
		<path
   id="XMLID_66_"
   class="st22"
   d="M762.2,316.1C762.2,316.1,762.2,316.1,762.2,316.1C762.2,316.1,762.2,316.1,762.2,316.1    L762.2,316.1z" />
		<path
   id="XMLID_67_"
   class="st22"
   d="M761.1,315.3c-0.3-0.2-0.7-0.5-1-0.7l0,0C760.4,314.8,760.8,315.1,761.1,315.3L761.1,315.3z" />
		<path
   id="XMLID_68_"
   class="st22"
   d="M762.5,316.4L762.5,316.4c0.2,0.2,0.4,0.4,0.6,0.6C763,316.8,762.8,316.6,762.5,316.4z" />
		<path
   id="XMLID_72_"
   class="st22"
   d="M759.7,314.4c-0.2-0.1-0.5-0.2-0.7-0.3c0,0,0,0,0,0C759.2,314.2,759.4,314.3,759.7,314.4    L759.7,314.4z" />
		<path
   id="XMLID_76_"
   class="st22"
   d="M755.3,312.9C755.3,312.9,755.3,313,755.3,312.9C755.3,313,755.3,313,755.3,312.9z" />
		<path
   id="XMLID_77_"
   class="st22"
   d="M752.8,312.7C752.7,312.7,752.7,312.7,752.8,312.7C752.7,312.7,752.7,312.7,752.8,312.7    L752.8,312.7z" />
		<path
   id="XMLID_79_"
   class="st22"
   d="M793.3,358.9c0,0.2,0,0.4,0.1,0.6l0,0C793.4,359.3,793.3,359.1,793.3,358.9L793.3,358.9z" />
		<path
   id="XMLID_81_"
   class="st22"
   d="M758.4,313.8c-0.1,0-0.2-0.1-0.3-0.1C758.2,313.8,758.3,313.8,758.4,313.8L758.4,313.8z" />
		<path
   id="XMLID_83_"
   class="st22"
   d="M753.9,312.8c-0.1,0-0.1,0-0.2,0l0,0C753.8,312.8,753.9,312.8,753.9,312.8L753.9,312.8z" />
		<path
   id="XMLID_84_"
   class="st22"
   d="M793.2,358c0,0.1,0,0.2,0.1,0.3l0,0C793.2,358.2,793.2,358.1,793.2,358z" />
		<path
   id="XMLID_85_"
   class="st22"
   d="M792.6,355.9c0.1,0.2,0.2,0.5,0.2,0.8C792.7,356.4,792.7,356.1,792.6,355.9L792.6,355.9z" />
		<path
   id="XMLID_86_"
   class="st22"
   d="M793.4,360.2L793.4,360.2c0,0.2,0,0.3,0,0.5v0C793.4,360.5,793.4,360.4,793.4,360.2z" />
		<path
   id="XMLID_87_"
   class="st22"
   d="M792.1,354.7c0.1,0.1,0.1,0.3,0.2,0.4C792.2,354.9,792.1,354.8,792.1,354.7    C792.1,354.7,792.1,354.7,792.1,354.7z" />
		<path
   id="XMLID_88_"
   class="st22"
   d="M791.1,368.7C791.1,368.7,791.1,368.7,791.1,368.7c-0.9,1.4-2,2.6-3.3,3.6l-8.5,6.6    c-12.8,9.9-31.1,7.6-41-5.2l-8-10.4c-9.9-12.8-7.6-31.1,5.2-41l8.5-6.6c1.3-1,2.8-1.8,4.4-2.3c0,0,0,0,0,0l0,0l-20.4-26.3    l-53.3,41.3l79.2,102.2l62.3-36l-3.4,2L791.1,368.7z"
   style="fill:#17742e;fill-opacity:1" />
		<path
   id="XMLID_89_"
   class="st22"
   d="M791.4,353.4c0.1,0.1,0.2,0.3,0.2,0.4C791.6,353.7,791.5,353.6,791.4,353.4L791.4,353.4z" />
		<path
   id="XMLID_90_"
   class="st22"
   d="M790.4,351.9c0.3,0.4,0.5,0.7,0.8,1.1l0,0C790.9,352.7,790.7,352.3,790.4,351.9z" />
		<polygon
   id="XMLID_91_"
   class="st22"
   points="793.2,363.5 793.2,363.5 793.2,363.5   " />
		<path
   id="XMLID_92_"
   class="st22"
   d="M793.4,362.1L793.4,362.1L793.4,362.1z" />
	</g>
	<path
   id="XMLID_19_"
   class="st20"
   d="M725.2,284.1" />
</g>
<polygon
   id="XMLID_195_"
   class="st23"
   points="812.7,396.6 753.8,430.6 748.4,423.7 807.1,389.4 "
   style="fill:#136127;fill-opacity:1" />
<path
   id="XMLID_14_"
   class="st24"
   d="M738.3,648.9H388.1v-176h364.1v162C752.3,642.6,746,648.9,738.3,648.9z" />
<circle
   id="XMLID_49_"
   class="st5"
   cx="389.5"
   cy="513.3"
   r="9" />
<path
   id="XMLID_3_"
   class="st3"
   d="M361.3,412.9V361c0-19.9-16.1-36-36-36h0c-19.9,0-36,16.1-36,36v51.8c0,33.1-26.9,60-60,60h0v152  c0,13.3,10.7,24,24,24h144c13.3,0,24-10.7,24-24v-152h0C388.1,472.9,361.3,446,361.3,412.9z" />
<polygon
   id="XMLID_17_"
   class="st3"
   points="742.4,648.9 398.9,648.9 413.9,634.9 755.4,634.9 " />
<path
   id="XMLID_42_"
   class="st3"
   d="M752.3,472.9v135.4c0,0,0,0,0,0v16.5c0,5.5-4.5,10-10,10h-16.5c0,0,0,0,0,0h-27.9v14h44.5  c13.3,0,24-10.7,24-24v-152H752.3z" />
<defs
   id="defs4946">
	<filter
   id="Adobe_OpacityMaskFilter_1_"
   filterUnits="userSpaceOnUse"
   x="373.1"
   y="396.1"
   width="443.5"
   height="374.9">
		<feColorMatrix
   type="matrix"
   values="1 0 0 0 0  0 1 0 0 0  0 0 1 0 0  0 0 0 1 0"
   id="feColorMatrix4943" />
	</filter>
</defs>
<mask
   maskUnits="userSpaceOnUse"
   x="373.1"
   y="396.1"
   width="443.5"
   height="374.9"
   id="XMLID_59_">
	<g
   id="XMLID_168_"
   class="st25">
		<path
   id="XMLID_167_"
   class="st26"
   d="M766.3,624.9c0,13.3-10.7,24-24,24H380.5h2.4c13.2,0,24-10.7,24-23.9l0.4-152.1h359V624.9z" />
	</g>
</mask>

<path
   id="XMLID_5_"
   class="st31"
   d="M347.3,412.9V361c0-19.9-16.1-36-36-36h0c-19.9,0-36,16.1-36,36v51.8c0,33.1-26.9,60-60,60h0  v152c0,13.3,10.7,24,24,24h144c13.3,0,24-10.7,24-24v-152h0C374.1,472.9,347.3,446,347.3,412.9z" />
<path
   id="XMLID_69_"
   class="st32"
   d="M217.4,634.9c3.8,8.3,12.1,14,21.8,14h144c9.7,0,18-5.7,21.8-14H217.4z" />
<defs
   id="defs4984">
	<filter
   id="Adobe_OpacityMaskFilter_2_"
   filterUnits="userSpaceOnUse"
   x="195"
   y="329.7"
   width="305.4"
   height="372.7">
		<feColorMatrix
   type="matrix"
   values="1 0 0 0 0  0 1 0 0 0  0 0 1 0 0  0 0 0 1 0"
   id="feColorMatrix4981" />
	</filter>
</defs>
<mask
   maskUnits="userSpaceOnUse"
   x="195"
   y="329.7"
   width="305.4"
   height="372.7"
   id="XMLID_120_">
	<g
   id="XMLID_138_"
   class="st33">
		<path
   id="XMLID_118_"
   class="st31"
   d="M347.3,412.9V361c0-19.9-16.1-36-36-36h0c-19.9,0-36,16.1-36,36v51.8c0,33.1-26.9,60-60,60    h0v152c0,13.3,10.7,24,24,24h144c13.3,0,24-10.7,24-24v-152h0C374.1,472.9,347.3,446,347.3,412.9z" />
	</g>
</mask>
<g
   id="XMLID_117_"
   class="st34"
   mask="url(#XMLID_120_)">
	<path
   id="XMLID_104_"
   class="st35"
   d="M252.1,678.7c-18.3-25.6-6.3-74,23.3-89.3c13.8-7.1,27.2-4.9,31.1-4.3   c37.2,6.6,69.2,55.1,56.7,84C349,702,276.1,712.1,252.1,678.7z" />
	<path
   id="XMLID_106_"
   class="st35"
   d="M216.1,650.7c-8-22.4,10.7-56.1,35.7-72c46.7-29.8,98.2,13.2,134-16   c29.9-24.5,18.6-74.8,25-75c9.7-0.3,58.1,115.1,0,176C354.1,723.1,231.4,693.6,216.1,650.7z" />
	<path
   id="XMLID_110_"
   class="st35"
   d="M277.8,656.7c-9.2-10-14-27.4-5.7-40c6.2-9.4,17.2-11.4,20.7-12c15.9-3,41.4,3.1,46,22.7   c3.9,16.5-9,34.7-26,39.3C300.4,670.1,286.5,666.2,277.8,656.7z" />
	<path
   id="XMLID_111_"
   class="st36"
   d="M379.5,625.7c5.3-2.4,5.9-19.5-2.5-25.8c-2.9-2.2-8.3-4.1-11.9-1.6c-3.9,2.6-3.4,8.8-3.3,9.8   C362.7,618.4,374.5,628,379.5,625.7z" />
	<path
   id="XMLID_112_"
   class="st35"
   d="M212.1,527.4c7.3-2.6,17.6,2.2,21.3,9.3c8.9,17.1-20.1,48.8-29.3,45.3   C194.7,578.5,195.4,533.4,212.1,527.4z" />
	<path
   id="XMLID_113_"
   class="st35"
   d="M207.8,499.7c7,6.1,18,14.2,33,20.3c19.2,7.8,36.3,8.9,46.7,8.7c15.6-3.9,24.2-10.7,29.3-17   c26.1-31.9,5.6-103.7-54-177" />
	<path
   id="XMLID_115_"
   class="st35"
   d="M219.4,470c8,19.7,33.8,35.9,52.4,28.7c13-5,18-19.6,19.6-24.2c11-32-8.1-76.9-29.6-78.8   C239.4,393.8,206.3,437.9,219.4,470z" />
	<path
   id="XMLID_116_"
   class="st35"
   d="M403.8,377.7c-5.9-20-23.1-47.3-38.9-44.9c-18.2,2.8-23.5,43.8-25.1,48.9   c-11.6,37.3,7.3,84.7,26,87c13.9,1.7,27-22.6,31-30C400,432.8,412.7,407.6,403.8,377.7z" />
	<path
   id="XMLID_132_"
   class="st35"
   d="M352.9,490.3c-3,1.6-7.1,4.5-25.1,40.4c-8.7,17.3-9.6,20.3-8,23c4.8,8.2,29.6,6.4,46.6-4.9   c20.3-13.6,33.8-43.1,24-55.5C383.3,484.2,364.8,483.9,352.9,490.3z" />
	<path
   id="XMLID_136_"
   class="st35"
   d="M363.4,505.3c-11.1,7.8-21.3,22.8-17.6,27.4c4.2,5.2,27.7-1.1,32.5-15.2   c1.9-5.7,1.2-14.1-3-16.2C371.7,499.6,366.8,502.9,363.4,505.3z" />
	<path
   id="XMLID_139_"
   class="st35"
   d="M296.8,628.7c-10.9,5.8-7.5,36.6,1.3,39.3c7.7,2.4,26.9-14.8,21.3-28.7   C316,630.6,303.4,625.2,296.8,628.7z" />
	<path
   id="XMLID_140_"
   class="st35"
   d="M244.8,548.7c-0.5,3.3,8.9,7.9,16.7,8.7c2.7,0.3,7.4,0.7,9.3-2c1.6-2.2,0.9-5.8-0.7-8   C264.9,540.2,245.5,544.2,244.8,548.7z" />
	<path
   id="XMLID_141_"
   class="st35"
   d="M232.1,454.7c1,16,18.6,31.5,27.7,28c8.2-3.2,12.3-22.9,3.7-34.7c-6-8.2-18.9-13.6-26-8.7   C231.4,443.5,232,453.3,232.1,454.7z" />
	<path
   id="XMLID_114_"
   class="st35"
   d="M305.8,349.7c-3.7,2.5-3.3,13.9,4,20c8.2,6.8,20.6,3.3,22-1C334,362,311.8,345.6,305.8,349.7   z" />
	<path
   id="XMLID_50_"
   class="st36"
   d="M452.8,570.7c-14.2-5.1-40.3-8.1-53,8c-14.3,18.1-0.2,45.8,2,50c1.6,3,14.8,26.9,43,31   c16.7,2.4,41.4-1.8,50-18C506.8,619,482.7,581.5,452.8,570.7z" />
</g>
<circle
   id="XMLID_57_"
   class="st3"
   cx="389.5"
   cy="560.9"
   r="9" />
<circle
   id="XMLID_105_"
   class="st3"
   cx="389.5"
   cy="513.3"
   r="9" />
<circle
   id="XMLID_60_"
   class="st3"
   cx="389.5"
   cy="608.4"
   r="9" />
<circle
   id="XMLID_64_"
   class="st3"
   cx="232.1"
   cy="513.3"
   r="9" />
<circle
   id="XMLID_63_"
   class="st3"
   cx="232.1"
   cy="560.9"
   r="9" />
<circle
   id="XMLID_61_"
   class="st3"
   cx="232.1"
   cy="608.4"
   r="9" />
<circle
   id="XMLID_38_"
   class="st3"
   cx="311.3"
   cy="361.7"
   r="12" />
</svg>